<svg version="1.1" id="Layer_1" xmlns="http://www.w3.org/2000/svg" xmlns:xlink="http://www.w3.org/1999/xlink" x="0px" y="0px"
     width="100%" viewBox="0 0 2048 2048" enable-background="new 0 0 2048 2048" xml:space="preserve">
<path fill="#000120" opacity="1.000000" stroke="none"
      d="
M950.000000,2049.000000
	C633.333313,2049.000000 317.166656,2049.000000 1.000000,2049.000000
	C1.000000,1366.333374 1.000000,683.666687 1.000000,1.000000
	C683.666687,1.000000 1366.333374,1.000000 2049.000000,1.000000
	C2049.000000,683.666687 2049.000000,1366.333374 2049.000000,2049.000000
	C1682.833374,2049.000000 1316.666626,2049.000000 950.000000,2049.000000
M688.865479,1457.776367
	C689.015076,1458.050049 689.240723,1458.226196 689.534058,1458.483521
	C689.534058,1458.483521 689.678894,1458.587891 689.926636,1459.108398
	C690.830811,1459.816772 691.735046,1460.525146 692.661987,1461.326416
	C692.661987,1461.326416 692.756775,1461.338501 692.980530,1461.951294
	C694.226013,1463.026611 695.380615,1464.234985 696.730957,1465.156860
	C712.150024,1475.683350 729.377258,1480.128296 748.687378,1480.440430
	C784.754211,1480.476074 820.820984,1480.511841 857.816956,1480.758789
	C896.234741,1480.793091 934.652527,1480.861328 973.070312,1480.847046
	C991.693115,1480.840088 1010.315918,1480.678711 1029.869507,1480.783569
	C1052.239014,1480.740112 1074.608521,1480.696655 1097.904297,1480.818970
	C1100.233765,1480.867188 1102.563232,1480.957764 1104.892700,1480.957275
	C1146.353638,1480.947021 1187.814575,1480.933472 1229.275513,1480.899170
	C1235.592529,1480.893921 1241.909668,1480.783081 1249.136475,1480.732178
	C1263.793091,1480.733521 1278.478149,1481.316284 1293.100098,1480.605103
	C1317.403076,1479.423218 1338.769165,1470.392090 1356.591553,1453.747192
	C1383.259521,1428.841064 1391.288086,1397.270752 1388.780762,1361.106079
	C1388.801514,1352.615845 1388.738770,1344.124023 1388.890503,1335.636108
	C1388.939941,1332.872803 1389.548584,1330.119385 1390.283936,1328.362549
	C1389.747681,1328.143677 1388.750977,1327.939087 1388.743652,1327.703857
	C1388.616333,1323.596191 1388.610352,1319.484863 1388.792480,1314.163818
	C1388.717651,1311.716919 1388.642822,1309.270020 1388.715698,1306.340942
	C1388.662354,1303.926514 1388.609131,1301.512207 1388.799316,1298.047119
	C1388.734253,1289.668213 1388.669189,1281.289307 1388.781860,1272.005859
	C1388.712158,1248.958740 1388.642456,1225.911743 1388.743042,1201.959351
	C1388.795532,1169.152588 1389.141846,1136.341919 1388.724487,1103.541138
	C1388.596558,1093.490112 1387.501343,1083.162476 1384.897217,1073.486816
	C1377.558838,1046.221313 1352.831543,1028.762939 1326.616699,1032.273804
	C1300.915527,1035.715942 1285.081177,1051.298462 1276.335205,1077.539062
	C1276.126953,1078.240601 1275.918701,1078.942261 1275.295044,1079.606445
	C1275.232178,1079.359253 1275.169189,1079.111938 1275.106201,1078.864746
	C1275.431641,1078.949829 1275.756958,1079.034790 1276.009644,1080.059937
	C1274.241089,1093.403076 1272.658325,1106.774048 1270.670166,1120.084351
	C1264.203125,1163.380615 1257.547974,1206.648804 1251.064575,1249.942627
	C1249.842041,1258.106689 1250.149170,1266.246094 1253.486816,1273.988403
	C1262.004150,1293.745972 1278.981445,1303.378540 1301.016479,1301.304077
	C1301.148193,1301.560791 1301.356812,1301.710693 1301.460693,1302.703613
	C1301.548950,1314.135376 1301.637207,1325.567139 1301.430420,1337.891113
	C1301.392456,1340.369141 1301.347900,1342.846924 1301.317749,1345.325073
	C1301.149292,1359.200439 1300.984375,1373.075806 1300.158447,1387.095215
	C1296.057495,1390.964478 1291.636963,1393.251343 1285.552734,1393.251343
	C1218.084717,1393.252197 1150.616821,1393.522949 1082.367798,1393.429077
	C1064.042969,1393.333618 1045.718140,1393.195557 1027.393188,1393.165527
	C1020.906860,1393.154907 1014.420166,1393.407715 1007.022278,1393.366089
	C1003.193970,1393.307617 999.365784,1393.200806 995.537415,1393.198120
	C948.075134,1393.165161 900.612854,1393.158936 853.150574,1393.109375
	C847.832642,1393.103882 842.514954,1392.875854 837.616394,1391.991943
	C841.151855,1387.189087 844.687378,1382.386230 848.420410,1377.562378
	C848.727661,1376.762817 849.034851,1375.963257 849.666321,1374.164307
	C850.494690,1368.769775 852.001404,1363.380249 852.041199,1357.979858
	C852.295044,1323.510132 852.265442,1289.038086 852.242249,1254.566772
	C852.233887,1242.086060 851.986450,1229.605591 852.051758,1216.178345
	C852.095154,1193.431885 852.177612,1170.685425 852.167725,1147.938965
	C852.161499,1133.668091 852.016357,1119.397095 852.140808,1104.234497
	C852.053345,1101.806274 851.965881,1099.378052 852.043518,1096.031738
	C852.057495,1074.763916 852.101135,1053.496216 852.073730,1032.228394
	C852.058533,1020.440491 851.924744,1008.652649 852.037537,995.973145
	C852.080627,921.159363 852.124878,846.345642 852.156006,771.531860
	C852.156494,770.374023 851.994812,769.216003 852.089294,767.128662
	C852.099792,760.808044 852.439880,754.467346 852.056152,748.170715
	C851.077393,732.109436 849.775635,716.067749 848.602478,699.225037
	C845.907959,684.521973 841.398315,670.446167 835.026062,657.129578
	C842.000122,657.090210 848.974121,657.050842 855.953613,657.852417
	C855.808655,659.510254 855.643982,661.166565 855.521729,662.826111
	C854.196594,680.805542 866.287720,699.693481 883.194092,705.749695
	C887.809021,706.669495 892.423950,707.589294 897.755188,708.673523
	C898.485107,708.628540 899.215027,708.583618 900.771179,708.773132
	C902.093933,708.674866 903.433411,708.678284 904.736877,708.463257
	C930.690308,704.181702 956.644653,699.905701 982.588074,695.564148
	C1006.403015,691.578796 1030.234741,687.679321 1053.987305,683.348328
	C1058.542725,682.517700 1062.764404,679.857910 1067.816772,677.905334
	C1089.454102,664.757385 1100.225708,641.632324 1095.912476,617.588562
	C1091.420898,592.551392 1073.294922,574.768250 1047.070312,569.820251
	C1046.078857,569.805481 1045.087280,569.790771 1043.165527,569.577576
	C1031.799927,569.547729 1020.434326,569.517883 1008.192871,569.235168
	C1005.774536,569.319946 1003.356262,569.404724 1000.230103,569.316223
	C999.509033,569.374756 998.787903,569.433289 997.215393,569.238586
	C995.453369,569.329102 993.691345,569.419617 991.319214,569.342285
	C990.905640,569.401123 990.492126,569.459961 989.166077,569.252930
	C968.572754,569.239441 947.979370,569.188660 927.386169,569.230652
	C918.927612,569.247864 910.469421,569.465271 901.107910,569.323181
	C889.091003,569.370605 877.074036,569.418030 864.143250,569.216553
	C833.698547,569.209961 803.253906,569.199219 772.809204,569.199524
	C764.166992,569.199646 755.524719,569.232117 745.960449,569.222839
	C740.631775,569.213257 735.302124,569.135803 729.974548,569.208008
	C718.588379,569.362366 707.416565,570.809875 696.755798,575.084412
	C665.968384,587.428650 652.538696,620.756592 667.076843,649.337097
	C675.444885,665.787537 689.351379,675.952637 706.447632,681.926208
	C717.106995,685.650696 727.808960,689.391785 738.731262,692.191528
	C754.029724,696.112854 762.549622,705.281982 763.843506,721.069824
	C763.924622,722.059448 764.137756,723.038330 764.123718,724.739685
	C764.265930,725.450256 764.408142,726.160889 764.385803,727.720032
	C764.621155,730.765320 764.856506,733.810669 764.911255,737.807129
	C765.016479,764.208008 765.121704,790.608826 765.031189,817.928284
	C765.019226,829.380859 764.975647,840.833496 765.001648,852.286011
	C765.059753,877.842346 765.152588,903.398560 765.038879,929.880371
	C765.083252,940.285339 765.127625,950.690247 764.965149,961.990051
	C764.953430,986.577698 764.910095,1011.165466 764.940552,1035.753052
	C764.962524,1053.525024 765.082703,1071.296997 764.990173,1089.984131
	C764.983276,1108.598755 764.944641,1127.213379 764.977600,1145.828003
	C765.017944,1168.593628 765.118225,1191.359131 765.012817,1215.030884
	C765.005676,1242.194214 765.126770,1269.358643 764.904602,1296.520142
	C764.846375,1303.641602 764.368835,1310.887695 762.932983,1317.838745
	C760.931091,1327.530151 757.069397,1336.767212 747.984192,1341.994873
	C739.373718,1346.949219 730.222900,1350.964233 721.324646,1355.328735
	C721.324646,1355.328735 721.435669,1355.284668 720.817383,1355.762939
	C720.597412,1355.902344 720.377441,1356.041870 720.213257,1356.144775
	C720.213257,1356.144775 720.332214,1356.084839 719.384216,1356.618530
	C718.710205,1356.884033 718.036255,1357.149536 717.379578,1357.335083
	C717.379578,1357.335083 717.528442,1357.342407 716.492310,1358.000732
	C716.117371,1358.164673 715.742432,1358.328613 715.358032,1358.422241
	C715.358032,1358.422241 715.472351,1358.376587 714.811523,1359.074463
	C714.283081,1359.433594 713.754700,1359.792725 713.281555,1360.119995
	C713.281555,1360.119995 713.398376,1360.070679 712.319519,1360.695801
	C711.549744,1361.007690 710.779968,1361.319580 709.995239,1361.601807
	C709.995239,1361.601807 710.018555,1361.626221 708.782043,1362.765137
	C708.314941,1363.074585 707.847778,1363.384155 707.318604,1363.672852
	C707.318604,1363.672852 707.023804,1363.808350 706.274536,1364.540405
	C705.977966,1364.724854 705.681396,1364.909180 704.979065,1365.566162
	C694.353760,1372.596802 685.541382,1381.279297 679.733887,1393.428467
	C679.628662,1393.776855 679.523499,1394.125366 678.941284,1394.956299
	C677.089661,1401.108032 674.260376,1407.153442 673.577271,1413.432251
	C671.816040,1429.621826 675.882812,1444.295410 687.646606,1456.347290
	C687.646606,1456.347290 687.741089,1456.334473 687.902771,1456.765503
	C688.083130,1457.037720 688.333984,1457.202637 688.659485,1457.335083
	C688.659485,1457.335083 688.730896,1457.357910 688.865479,1457.776367
z"/>
    <path fill="#FA5168" opacity="1.000000" stroke="none"
          d="
M851.844482,996.864807
	C851.924744,1008.652649 852.058533,1020.440491 852.073730,1032.228394
	C852.101135,1053.496216 852.057495,1074.763916 851.650513,1096.277832
	C849.382568,1096.013062 847.432007,1094.887451 845.646912,1095.107056
	C840.326294,1095.761475 835.106995,1097.306396 829.781677,1097.840454
	C820.114990,1098.810059 810.398315,1099.274658 800.707397,1100.013672
	C798.738037,1100.164062 796.389709,1100.002197 794.903320,1101.003906
	C789.162903,1104.872803 782.774658,1104.359863 776.581604,1103.810059
	C772.642090,1103.460449 769.219482,1103.507202 766.036987,1105.475830
	C766.010986,1099.691650 765.990234,1094.368774 765.994507,1088.572998
	C766.002563,1047.375732 765.994690,1006.651123 765.935059,965.926636
	C765.932739,964.315735 765.437561,962.705688 765.171997,961.095215
	C765.127625,950.690247 765.083252,940.285339 765.320679,929.055420
	C765.738281,925.415771 765.965698,922.601929 765.991821,919.786255
	C766.058472,912.589905 767.458923,911.106567 774.763550,911.052734
	C782.588684,910.995056 790.474182,911.636108 798.222595,910.862915
	C805.344177,910.152222 813.314819,912.241638 819.297729,905.838501
	C820.248047,904.821350 822.759766,905.157715 824.560181,905.058350
	C832.772339,904.604980 840.988220,904.219421 849.692383,903.785095
	C850.071960,908.113220 850.891968,913.346069 850.928467,918.584290
	C851.095642,942.559509 851.023926,966.536255 851.103027,990.512268
	C851.110046,992.630615 851.586243,994.747314 851.844482,996.864807
M850.539917,1089.507324
	C850.539917,1089.507324 850.487915,1089.529907 850.539917,1089.507324
z"/>
    <path fill="#FCCA29" opacity="1.000000" stroke="none"
          d="
M764.289429,724.022217
	C764.137756,723.038330 763.924622,722.059448 763.843506,721.069824
	C762.549622,705.281982 754.029724,696.112854 738.731262,692.191528
	C727.808960,689.391785 717.106995,685.650696 706.447632,681.926208
	C689.351379,675.952637 675.444885,665.787537 667.076843,649.337097
	C652.538696,620.756592 665.968384,587.428650 696.755798,575.084412
	C707.416565,570.809875 718.588379,569.362366 729.974548,569.208008
	C735.302124,569.135803 740.631775,569.213257 746.072021,569.329102
	C744.098267,569.951599 741.990112,570.391052 739.931824,570.998901
	C734.381836,572.637756 728.633118,573.848083 723.373352,576.161011
	C717.226318,578.864258 715.039185,584.284180 715.644043,590.967529
	C716.510681,600.544373 722.754028,605.913452 730.717590,609.205078
	C738.366150,612.366455 746.473267,614.433044 754.410156,616.879272
	C769.643311,621.574219 784.898743,626.197327 800.324707,631.086670
	C801.064087,631.466797 801.623657,631.610596 802.105957,631.751465
	C802.028687,631.748474 802.182373,631.723816 802.293274,632.054138
	C807.726318,635.395203 811.525940,641.094421 818.453857,641.425049
	C818.541321,641.426208 818.601318,641.590454 818.515747,641.944763
	C821.766846,646.070435 825.002014,649.939453 828.492432,653.562622
	C829.798584,654.918396 831.699219,655.701477 833.448608,656.803223
	C833.702454,657.099487 833.887512,657.254517 834.123657,657.325806
	C841.398315,670.446167 845.907959,684.521973 848.425110,699.986572
	C848.153015,702.563660 847.985901,704.378967 847.976257,706.195007
	C847.936890,713.614441 847.615845,713.707764 840.022217,714.021667
	C828.625732,714.492737 817.239075,715.255676 805.861938,716.082458
	C804.392883,716.189148 802.157776,717.083130 801.725037,718.182251
	C799.737122,723.231934 795.750854,723.019470 791.477112,723.050049
	C788.535156,723.070984 785.610779,724.036377 782.656189,724.220093
	C779.239380,724.432617 775.619141,724.925781 772.410706,724.075989
	C767.981262,722.902710 767.248718,724.735962 766.906372,728.369446
	C766.636963,731.229919 765.720764,734.029358 765.091797,736.855957
	C764.856506,733.810669 764.621155,730.765320 764.613342,727.074280
	C764.657104,725.626404 764.473267,724.824341 764.289429,724.022217
M769.557983,719.964539
	C769.299316,718.815918 769.040649,717.667297 768.781921,716.518677
	C768.124817,716.839355 767.467712,717.160034 766.810608,717.480713
	C767.570068,718.461243 768.329468,719.441833 769.557983,719.964539
z"/>
    <path fill="#013E64" opacity="1.000000" stroke="none"
          d="
M1083.148804,1393.720703
	C1150.616821,1393.522949 1218.084717,1393.252197 1285.552734,1393.251343
	C1291.636963,1393.251343 1296.057495,1390.964478 1300.632812,1387.474854
	C1301.167603,1407.812622 1298.553833,1427.263062 1289.919922,1445.522339
	C1282.132202,1461.992065 1269.832275,1473.251465 1252.026001,1478.158447
	C1250.630127,1478.543091 1249.487183,1479.845337 1248.226685,1480.721069
	C1241.909668,1480.783081 1235.592529,1480.893921 1229.275513,1480.899170
	C1187.814575,1480.933472 1146.353638,1480.947021 1104.892700,1480.957275
	C1102.563232,1480.957764 1100.233765,1480.867188 1097.635254,1480.424316
	C1104.260742,1479.689575 1111.155518,1479.354980 1118.049683,1479.006470
	C1120.041748,1478.905884 1122.031860,1478.765869 1124.022827,1478.644043
	C1124.007812,1478.264160 1123.992676,1477.884155 1123.977661,1477.504272
	C1121.980225,1477.180176 1119.982666,1476.856079 1118.378296,1476.595703
	C1119.148315,1474.580566 1120.458618,1472.778320 1120.402588,1471.019409
	C1120.149414,1463.073730 1119.384521,1455.145386 1119.064697,1447.200317
	C1118.915649,1443.497803 1117.885132,1441.081177 1113.732178,1440.947266
	C1110.436157,1440.841064 1109.035889,1438.857178 1109.033447,1435.713989
	C1109.029541,1430.889282 1108.714844,1426.037842 1109.112549,1421.245972
	C1109.711914,1414.026001 1110.812012,1406.847534 1111.745850,1399.273438
	C1111.773071,1399.276611 1110.518433,1399.108643 1109.258789,1398.995972
	C1101.313477,1398.284790 1093.356689,1397.675781 1085.436157,1396.753784
	C1084.567749,1396.652710 1083.906250,1394.774658 1083.148804,1393.720703
z"/>
    <path fill="#016870" opacity="1.000000" stroke="none"
          d="
M680.020020,1392.960205
	C685.541382,1381.279297 694.353760,1372.596802 704.997681,1365.578369
	C703.821289,1367.388306 702.393555,1369.075317 701.474976,1371.004761
	C698.824097,1376.572876 700.627380,1384.356079 706.023865,1386.765869
	C712.146973,1389.500244 718.823975,1392.539062 725.310974,1392.656860
	C760.940552,1393.304688 796.585632,1393.104370 832.225464,1393.166260
	C833.882385,1393.169189 835.539917,1392.895874 837.197144,1392.750977
	C842.514954,1392.875854 847.832642,1393.103882 853.150574,1393.109375
	C900.612854,1393.158936 948.075134,1393.165161 995.537415,1393.198120
	C999.365784,1393.200806 1003.193970,1393.307617 1007.560059,1393.790649
	C1010.164551,1394.850098 1012.237366,1395.465820 1014.296387,1396.124634
	C1017.190186,1397.050659 1021.853577,1396.579468 1018.821045,1402.155029
	C1018.441040,1402.853760 1019.303162,1404.723877 1020.120117,1405.471680
	C1021.665955,1406.886719 1023.596802,1407.881104 1024.535889,1408.501099
	C1025.213989,1415.960938 1025.573730,1422.875000 1026.550659,1429.700806
	C1027.290161,1434.868164 1028.775635,1439.933105 1030.006470,1445.024780
	C1031.048340,1449.334595 1031.790894,1453.784546 1033.445068,1457.855835
	C1034.607422,1460.716675 1034.632690,1462.186523 1031.980225,1464.073730
	C1030.770874,1464.934204 1030.039307,1467.539795 1030.348022,1469.106079
	C1030.577637,1470.270386 1032.715454,1471.349609 1034.211792,1471.900146
	C1036.113647,1472.599854 1038.226196,1472.727051 1040.247803,1473.101074
	C1040.156128,1473.744629 1040.064575,1474.388306 1039.972900,1475.031982
	C1035.969116,1475.031982 1031.965210,1475.031982 1027.842896,1475.031982
	C1028.314331,1477.421631 1028.626465,1479.004517 1028.938721,1480.587158
	C1010.315918,1480.678711 991.693115,1480.840088 973.070312,1480.847046
	C934.652527,1480.861328 896.234741,1480.793091 857.405151,1480.299316
	C859.992859,1478.293579 862.992493,1476.747314 864.900818,1475.763550
	C864.900818,1468.629395 865.101501,1461.821289 864.827271,1455.032227
	C864.656677,1450.808838 864.884033,1445.940918 862.872009,1442.605469
	C861.035217,1439.560303 859.788879,1436.958740 860.008118,1433.560425
	C860.241394,1429.945190 859.729065,1426.889648 856.658691,1424.180786
	C855.338257,1423.015625 855.196167,1419.887939 855.418640,1417.745361
	C855.766296,1414.396973 856.878967,1411.127930 857.754089,1407.462646
	C851.705750,1406.749023 846.219666,1406.101685 840.733521,1405.454346
	C840.628723,1404.918579 840.523865,1404.382812 840.419067,1403.847046
	C845.022827,1402.316650 849.626648,1400.786255 854.230408,1399.255859
	C852.794128,1397.800781 851.339172,1397.144897 849.852112,1397.061646
	C842.013672,1396.622437 834.168274,1396.063721 826.323181,1396.029663
	C796.002319,1395.898071 765.675598,1396.250488 735.362610,1395.737671
	C727.027649,1395.596802 718.602661,1393.581909 710.459961,1391.489258
	C703.620605,1389.731567 699.104065,1384.896606 697.900635,1377.517456
	C697.786194,1376.815674 696.886047,1376.242065 696.890930,1376.247803
	C695.034851,1377.921753 693.577026,1379.250488 692.103516,1380.561768
	C690.527832,1381.963989 688.827393,1383.244751 687.377686,1384.765625
	C684.846008,1387.421631 682.464478,1390.220947 680.020020,1392.960205
M858.361694,1399.201416
	C858.208008,1399.014771 858.054321,1398.828125 857.900635,1398.641479
	C857.800537,1398.733887 857.700378,1398.826416 857.600220,1398.918823
	C857.776245,1399.085083 857.952271,1399.251465 858.361694,1399.201416
M697.443970,1373.492798
	C697.443970,1373.492798 697.518127,1373.456055 697.443970,1373.492798
z"/>
    <path fill="#02957D" opacity="1.000000" stroke="none"
          d="
M679.876953,1393.194336
	C682.464478,1390.220947 684.846008,1387.421631 687.377686,1384.765625
	C688.827393,1383.244751 690.527832,1381.963989 692.103516,1380.561768
	C693.577026,1379.250488 695.034851,1377.921753 696.890930,1376.247803
	C696.886047,1376.242065 697.786194,1376.815674 697.900635,1377.517456
	C699.104065,1384.896606 703.620605,1389.731567 710.459961,1391.489258
	C718.602661,1393.581909 727.027649,1395.596802 735.362610,1395.737671
	C765.675598,1396.250488 796.002319,1395.898071 826.323181,1396.029663
	C834.168274,1396.063721 842.013672,1396.622437 849.852112,1397.061646
	C851.339172,1397.144897 852.794128,1397.800781 854.230408,1399.255859
	C849.626648,1400.786255 845.022827,1402.316650 840.419067,1403.847046
	C840.523865,1404.382812 840.628723,1404.918579 840.733521,1405.454346
	C846.219666,1406.101685 851.705750,1406.749023 857.754089,1407.462646
	C856.878967,1411.127930 855.766296,1414.396973 855.418640,1417.745361
	C855.196167,1419.887939 855.338257,1423.015625 856.658691,1424.180786
	C859.729065,1426.889648 860.241394,1429.945190 860.008118,1433.560425
	C859.788879,1436.958740 861.035217,1439.560303 862.872009,1442.605469
	C864.884033,1445.940918 864.656677,1450.808838 864.827271,1455.032227
	C865.101501,1461.821289 864.900818,1468.629395 864.900818,1475.763550
	C862.992493,1476.747314 859.992859,1478.293579 856.940552,1480.193604
	C820.820984,1480.511841 784.754211,1480.476074 748.148682,1479.972168
	C746.619629,1479.040771 745.669617,1478.316895 744.632507,1478.156738
	C737.474670,1477.050781 730.196045,1476.507812 723.162231,1474.889038
	C717.968140,1473.693604 712.989258,1471.357300 708.090515,1469.140381
	C702.871277,1466.778320 697.859253,1463.958496 692.756775,1461.338501
	C692.756775,1461.338501 692.661987,1461.326416 692.747375,1460.983887
	C693.965942,1456.601562 691.656738,1457.849243 689.678894,1458.587891
	C689.678894,1458.587891 689.534058,1458.483521 689.496826,1458.168213
	C689.303101,1457.560913 689.060181,1457.395874 688.730896,1457.357910
	C688.730896,1457.357910 688.659485,1457.335083 688.581726,1457.077515
	C688.322632,1456.543457 688.068359,1456.381592 687.741089,1456.334473
	C687.741089,1456.334473 687.646606,1456.347290 687.677856,1455.929077
	C687.223083,1454.327759 687.016357,1452.891235 686.208130,1452.000366
	C677.513855,1442.416626 676.597229,1430.255005 674.967285,1418.344849
	C674.825317,1417.306885 675.569092,1416.165771 675.810669,1415.052856
	C676.152527,1413.478149 676.438965,1411.890015 676.696899,1410.299072
	C677.163879,1407.418579 677.557922,1404.526245 678.047546,1401.649902
	C678.456055,1399.249512 678.957825,1396.865234 679.418335,1394.473755
	C679.523499,1394.125366 679.628662,1393.776855 679.876953,1393.194336
M691.482361,1383.501343
	C691.482361,1383.501343 691.511658,1383.495483 691.482361,1383.501343
z"/>
    <path fill="#CD1261" opacity="1.000000" stroke="none"
          d="
M837.406738,1392.371582
	C835.539917,1392.895874 833.882385,1393.169189 832.225464,1393.166260
	C796.585632,1393.104370 760.940552,1393.304688 725.310974,1392.656860
	C718.823975,1392.539062 712.146973,1389.500244 706.023865,1386.765869
	C700.627380,1384.356079 698.824097,1376.572876 701.474976,1371.004761
	C702.393555,1369.075317 703.821289,1367.388306 705.200562,1365.342041
	C705.681396,1364.909180 705.977966,1364.724854 706.655884,1364.281738
	C707.224243,1363.960205 707.411255,1363.897217 707.598206,1363.834229
	C707.525696,1363.787354 707.453186,1363.740479 707.380676,1363.693604
	C707.847778,1363.384155 708.314941,1363.074585 709.399170,1362.217773
	C710.016296,1361.670410 710.010193,1361.631592 710.010132,1361.631592
	C710.779968,1361.319580 711.549744,1361.007690 712.877197,1360.453369
	C713.434875,1360.211060 713.226318,1360.151978 713.226318,1360.151978
	C713.754700,1359.792725 714.283081,1359.433594 715.163086,1358.767944
	C715.514587,1358.461426 715.367554,1358.492554 715.367554,1358.492432
	C715.742432,1358.328613 716.117371,1358.164673 717.020020,1357.731445
	C717.547791,1357.462036 717.362244,1357.415039 717.362244,1357.415039
	C718.036255,1357.149536 718.710205,1356.884033 719.887329,1356.427246
	C720.390381,1356.236084 720.157410,1356.181519 720.157410,1356.181519
	C720.377441,1356.041870 720.597412,1355.902344 721.144470,1355.570557
	C721.471558,1355.378296 721.309814,1355.392456 721.309814,1355.392334
	C730.222900,1350.964233 739.373718,1346.949219 747.984192,1341.994873
	C757.069397,1336.767212 760.931091,1327.530151 762.932983,1317.838745
	C764.368835,1310.887695 764.846375,1303.641602 764.904602,1296.520142
	C765.126770,1269.358643 765.005676,1242.194214 765.302124,1214.922119
	C765.724304,1216.796021 765.968689,1218.778198 765.972839,1220.760986
	C766.010803,1238.913818 765.996521,1257.066772 766.033142,1275.219604
	C766.036499,1276.873657 766.288940,1278.527100 766.443481,1280.396606
	C772.687744,1277.413818 778.162476,1274.791748 783.650452,1272.197632
	C783.920532,1272.069946 784.308777,1272.161133 784.637695,1272.193848
	C793.026123,1273.028198 801.404419,1274.005737 809.810059,1274.592041
	C811.505798,1274.710327 813.772278,1273.807495 814.967773,1272.585205
	C818.441223,1269.033691 827.758606,1266.321655 832.488647,1267.727661
	C834.834778,1268.425171 837.376038,1269.088867 839.761719,1268.903198
	C844.970032,1268.497803 848.641785,1269.473389 848.498413,1275.704102
	C848.496643,1275.779297 849.039429,1275.867188 850.511414,1276.285034
	C850.830017,1264.291992 851.169373,1252.595703 851.441528,1240.897949
	C851.625916,1232.974731 851.715942,1225.049438 851.848145,1217.125000
	C851.986450,1229.605591 852.233887,1242.086060 852.242249,1254.566772
	C852.265442,1289.038086 852.295044,1323.510132 852.041199,1357.979858
	C852.001404,1363.380249 850.494690,1368.769775 849.430542,1374.575317
	C848.870850,1375.852051 848.546814,1376.717651 848.222778,1377.583374
	C844.687378,1382.386230 841.151855,1387.189087 837.406738,1392.371582
z"/>
    <path fill="#DE3767" opacity="1.000000" stroke="none"
          d="
M899.944946,708.538635
	C899.215027,708.583618 898.485107,708.628540 897.227417,708.282593
	C892.021606,707.007324 887.343567,706.123108 882.665466,705.238892
	C866.287720,699.693481 854.196594,680.805542 855.521729,662.826111
	C855.643982,661.166565 855.808655,659.510254 856.256348,657.312866
	C857.385803,656.509338 858.212402,656.245300 859.503662,655.988159
	C864.961731,655.997498 869.959045,656.123352 874.947754,655.969238
	C880.405762,655.800537 885.894409,655.666931 891.296082,654.957458
	C895.035461,654.466309 896.825439,652.292603 894.768372,648.190674
	C894.001099,646.660522 894.050598,644.633118 894.033936,642.829590
	C893.961731,635.007080 894.081726,627.182495 893.985229,619.360474
	C893.806885,604.901978 893.456726,590.444885 893.438843,575.986877
	C893.437622,574.995728 895.543152,573.918640 896.775696,573.029663
	C898.467285,571.809509 900.261108,570.730896 902.011108,569.591675
	C910.469421,569.465271 918.927612,569.247864 927.386169,569.230652
	C947.979370,569.188660 968.572754,569.239441 989.658203,569.641724
	C990.520020,570.450867 990.889648,570.871216 991.259277,571.291626
	C991.482605,570.697754 991.705933,570.103943 991.929321,569.510132
	C993.691345,569.419617 995.453369,569.329102 997.685913,569.657227
	C998.624390,570.600769 999.092285,571.125793 999.560181,571.650757
	C1000.019409,570.930359 1000.478638,570.209961 1000.937866,569.489563
	C1003.356262,569.404724 1005.774536,569.319946 1008.686279,569.689697
	C1010.017822,570.815430 1010.759827,571.706909 1011.709900,572.121643
	C1017.149536,574.496521 1019.497009,577.988525 1019.200317,584.475281
	C1018.547119,598.756958 1018.965942,613.089294 1019.018677,627.400696
	C1019.032715,631.214966 1018.980469,635.075989 1019.531250,638.831604
	C1020.488586,645.359375 1020.563110,645.516846 1013.518311,647.387024
	C1014.423340,648.992676 1015.257690,650.390930 1016.010437,651.831848
	C1016.722290,653.194275 1017.348572,654.601501 1017.543335,656.017578
	C1002.744324,656.055054 988.413269,655.949341 974.085022,656.100891
	C954.617554,656.306763 935.148926,656.601074 915.690369,657.178345
	C913.501038,657.243347 909.934021,658.984192 909.473877,660.635620
	C907.764648,666.769775 906.722473,673.157654 906.131592,679.515442
	C905.609558,685.132141 905.334839,690.944397 906.207458,696.471924
	C907.163635,702.528503 906.797058,706.962830 899.944946,708.538635
z"/>
    <path fill="#FDA63D" opacity="1.000000" stroke="none"
          d="
M765.001587,737.331543
	C765.720764,734.029358 766.636963,731.229919 766.906372,728.369446
	C767.248718,724.735962 767.981262,722.902710 772.410706,724.075989
	C775.619141,724.925781 779.239380,724.432617 782.656189,724.220093
	C785.610779,724.036377 788.535156,723.070984 791.477112,723.050049
	C795.750854,723.019470 799.737122,723.231934 801.725037,718.182251
	C802.157776,717.083130 804.392883,716.189148 805.861938,716.082458
	C817.239075,715.255676 828.625732,714.492737 840.022217,714.021667
	C847.615845,713.707764 847.936890,713.614441 847.976257,706.195007
	C847.985901,704.378967 848.153015,702.563660 848.425415,700.383179
	C849.775635,716.067749 851.077393,732.109436 852.056152,748.170715
	C852.439880,754.467346 852.099792,760.808044 851.777222,767.934021
	C851.309998,770.713440 851.026184,772.687012 851.019897,774.661560
	C850.964172,792.113953 850.966980,809.566528 850.932190,827.019043
	C850.917542,834.401794 847.406799,837.920654 840.081665,837.938599
	C834.264160,837.952820 828.444397,837.853149 822.630432,837.997314
	C820.881287,838.040588 819.130859,838.668518 817.411499,839.139771
	C814.158630,840.031128 810.980469,841.492676 807.677856,841.846985
	C798.779724,842.801453 789.352051,839.724487 781.098022,845.583496
	C780.393372,846.083557 779.155090,845.812744 778.169861,845.940002
	C774.372437,846.430725 770.577209,846.937622 766.070435,847.532227
	C766.070435,843.296265 766.178833,838.546082 766.042297,833.802979
	C765.881104,828.202087 765.508118,822.607178 765.226929,817.009705
	C765.121704,790.608826 765.016479,764.208008 765.001587,737.331543
z"/>
    <path fill="#542BFA" opacity="1.000000" stroke="none"
          d="
M1248.681641,1480.726562
	C1249.487183,1479.845337 1250.630127,1478.543091 1252.026001,1478.158447
	C1269.832275,1473.251465 1282.132202,1461.992065 1289.919922,1445.522339
	C1298.553833,1427.263062 1301.167603,1407.812622 1300.962646,1387.402832
	C1300.984375,1373.075806 1301.149292,1359.200439 1301.317749,1345.325073
	C1301.347900,1342.846924 1301.392456,1340.369141 1301.910889,1337.522705
	C1303.457764,1340.547119 1304.524170,1343.940186 1305.132812,1345.876953
	C1309.299438,1345.876953 1312.422852,1345.599365 1315.478638,1345.935791
	C1321.501831,1346.598755 1327.028076,1348.583618 1332.714600,1350.995728
	C1339.828857,1354.013428 1348.009888,1354.632202 1355.789185,1355.936035
	C1365.248169,1357.521362 1375.983643,1355.057251 1382.730957,1364.913086
	C1382.977905,1365.273926 1384.763550,1364.900146 1385.611572,1364.451660
	C1386.721802,1363.864380 1387.612061,1362.861206 1388.596924,1362.036987
	C1391.288086,1397.270752 1383.259521,1428.841064 1356.591553,1453.747192
	C1338.769165,1470.392090 1317.403076,1479.423218 1293.100098,1480.605103
	C1278.478149,1481.316284 1263.793091,1480.733521 1248.681641,1480.726562
z"/>
    <path fill="#13BDFE" opacity="1.000000" stroke="none"
          d="
M1277.119629,1075.485596
	C1285.081177,1051.298462 1300.915527,1035.715942 1326.616699,1032.273804
	C1352.831543,1028.762939 1377.558838,1046.221313 1384.897217,1073.486816
	C1387.501343,1083.162476 1388.596558,1093.490112 1388.724487,1103.541138
	C1389.141846,1136.341919 1388.795532,1169.152588 1388.317383,1202.406494
	C1386.528320,1201.930542 1385.164917,1201.007446 1383.562134,1199.922241
	C1383.182861,1200.881592 1382.739868,1202.002319 1382.394531,1202.876221
	C1380.509155,1201.669556 1378.907593,1200.292358 1377.053711,1199.522461
	C1370.914673,1196.973145 1363.403076,1199.157593 1357.956665,1194.056641
	C1357.768188,1193.880249 1357.307373,1194.015991 1356.980713,1193.962646
	C1348.692139,1192.610107 1340.381836,1191.373169 1332.127563,1189.835205
	C1328.780762,1189.211670 1325.594604,1187.265991 1322.269165,1187.075195
	C1313.189331,1186.554199 1313.175415,1186.797363 1309.299561,1178.932617
	C1309.064087,1183.589844 1308.828491,1188.247070 1308.540405,1193.942749
	C1306.777100,1188.470581 1304.598511,1184.340576 1304.235596,1180.056641
	C1303.381958,1169.983643 1303.202271,1159.838867 1303.100342,1149.719727
	C1302.916016,1131.427856 1303.013794,1113.133301 1302.913696,1094.840332
	C1302.903076,1092.902588 1302.358154,1090.967896 1301.937500,1088.983765
	C1301.813721,1088.935791 1301.555176,1088.994995 1301.512939,1088.610107
	C1301.455811,1087.708984 1301.440918,1087.192749 1301.523315,1086.623291
	C1301.620483,1086.569946 1301.473755,1086.203125 1301.547974,1085.756836
	C1301.691650,1082.927490 1301.761108,1080.544312 1302.053467,1077.931152
	C1302.854370,1077.039917 1303.432373,1076.378784 1303.786255,1075.974121
	C1305.102539,1078.079102 1306.114746,1081.333374 1307.377075,1081.433472
	C1312.863159,1081.868652 1309.858032,1076.100830 1312.515381,1072.918213
	C1313.887817,1080.477905 1319.117432,1080.031006 1324.441284,1081.437866
	C1332.062012,1083.451782 1341.045776,1080.342041 1347.453369,1087.121460
	C1348.036377,1087.738281 1349.302246,1087.867188 1350.271362,1087.935791
	C1356.059692,1088.346313 1361.864258,1089.063232 1367.642944,1088.909302
	C1372.669434,1088.775635 1376.333008,1089.668213 1378.131470,1094.972412
	C1378.548340,1096.201782 1381.267700,1097.885132 1382.013794,1097.515381
	C1383.644897,1096.707275 1385.674683,1094.800903 1385.813965,1093.193481
	C1386.736450,1082.548828 1384.391968,1072.290161 1378.967041,1063.270874
	C1374.552490,1055.931030 1369.857788,1049.033325 1361.981934,1043.742065
	C1351.650757,1036.801270 1340.918457,1032.822632 1329.180786,1033.338745
	C1311.312256,1034.124146 1298.233032,1044.779053 1287.256958,1057.967651
	C1285.018677,1060.657227 1284.244019,1064.564819 1282.454346,1068.696411
	C1285.693848,1068.854858 1287.562378,1068.644897 1289.260620,1069.087891
	C1293.735962,1070.255493 1299.077393,1070.181763 1300.351440,1076.079468
	C1289.946167,1068.921265 1286.984985,1068.843628 1277.119629,1075.485596
z"/>
    <path fill="#781CC3" opacity="1.000000" stroke="none"
          d="
M1301.426147,1086.676636
	C1301.440918,1087.192749 1301.455811,1087.708984 1301.363770,1089.051758
	C1301.197144,1099.999023 1301.056274,1110.119995 1301.109375,1120.240112
	C1301.138916,1125.851196 1301.492554,1131.460815 1301.657959,1137.533569
	C1301.575806,1156.411987 1301.535767,1174.827881 1301.372803,1193.680664
	C1301.202759,1223.111084 1301.135864,1252.104370 1301.123291,1281.097778
	C1301.120483,1287.758301 1301.304688,1294.418945 1301.264526,1301.061157
	C1301.126221,1301.042847 1300.868530,1300.935303 1300.868530,1300.935303
	C1278.981445,1303.378540 1262.004150,1293.745972 1253.486816,1273.988403
	C1250.149170,1266.246094 1249.842041,1258.106689 1251.064575,1249.942627
	C1257.547974,1206.648804 1264.203125,1163.380615 1270.670166,1120.084351
	C1272.658325,1106.774048 1274.241089,1093.403076 1276.027344,1079.672119
	C1276.044922,1079.284180 1275.710571,1079.643799 1275.710571,1079.643799
	C1275.918701,1078.942261 1276.126953,1078.240601 1276.727417,1076.512329
	C1286.984985,1068.843628 1289.946167,1068.921265 1300.428467,1076.388916
	C1301.180420,1077.181885 1301.505493,1077.671509 1301.830566,1078.161255
	C1301.761108,1080.544312 1301.691650,1082.927490 1301.455200,1085.809082
	C1301.288208,1086.307739 1301.426147,1086.676636 1301.426147,1086.676636
z"/>
    <path fill="#B61E5F" opacity="1.000000" stroke="none"
          d="
M859.039062,655.981262
	C858.212402,656.245300 857.385803,656.509338 856.253662,656.892456
	C848.974121,657.050842 842.000122,657.090210 834.574829,657.227661
	C833.887512,657.254517 833.702454,657.099487 833.367676,656.469238
	C828.311768,651.248657 823.456543,646.419556 818.601318,641.590454
	C818.601318,641.590454 818.541321,641.426208 818.264221,641.168701
	C812.718872,637.848694 807.450623,634.786255 802.182373,631.723816
	C802.182373,631.723816 802.028687,631.748474 801.918335,631.524902
	C801.253662,631.151001 800.699280,631.000610 800.144897,630.850281
	C784.898743,626.197327 769.643311,621.574219 754.410156,616.879272
	C746.473267,614.433044 738.366150,612.366455 730.717590,609.205078
	C722.754028,605.913452 716.510681,600.544373 715.644043,590.967529
	C715.039185,584.284180 717.226318,578.864258 723.373352,576.161011
	C728.633118,573.848083 734.381836,572.637756 739.931824,570.998901
	C741.990112,570.391052 744.098267,569.951599 746.533081,569.342529
	C755.524719,569.232117 764.166992,569.199646 772.809204,569.199524
	C803.253906,569.199219 833.698547,569.209961 864.507446,569.654236
	C860.935303,573.108154 859.506775,576.429993 859.708374,581.993591
	C860.443054,602.270630 860.054138,622.590576 859.955994,642.893799
	C859.934937,647.257629 859.359253,651.618835 859.039062,655.981262
M853.853333,574.237915
	C854.591919,574.323181 855.330505,574.408386 856.069092,574.493591
	C856.074341,574.171326 856.079529,573.849060 856.084778,573.526733
	C855.345886,573.588745 854.606995,573.650757 853.853333,574.237915
z"/>
    <path fill="#3764FE" opacity="1.000000" stroke="none"
          d="
M1301.402832,1301.079468
	C1301.304688,1294.418945 1301.120483,1287.758301 1301.123291,1281.097778
	C1301.135864,1252.104370 1301.202759,1223.111084 1301.527344,1194.005859
	C1302.202148,1205.014282 1302.661987,1216.132568 1302.978271,1227.255005
	C1303.250122,1236.808960 1301.179443,1246.756470 1307.644287,1254.097290
	C1312.038086,1253.712158 1316.161865,1253.408447 1320.271851,1252.974487
	C1324.573608,1252.520386 1327.605469,1254.033325 1329.634399,1257.997314
	C1330.282227,1259.263184 1331.925049,1260.614990 1333.285400,1260.828857
	C1347.157471,1263.010864 1361.039429,1265.180176 1374.978394,1266.857178
	C1379.286743,1267.375366 1380.804443,1269.274170 1380.995117,1273.131592
	C1381.107666,1275.407837 1381.301025,1277.680176 1381.458130,1279.954224
	C1381.877808,1279.927002 1382.297485,1279.899658 1382.717163,1279.872437
	C1382.913330,1275.598633 1383.109375,1271.324951 1383.305420,1267.051270
	C1383.776245,1267.048584 1384.247070,1267.045898 1384.717896,1267.043335
	C1384.932739,1270.389648 1385.147583,1273.736084 1385.431396,1278.157471
	C1386.979736,1275.596802 1387.791870,1274.253662 1388.604126,1272.910400
	C1388.669189,1281.289307 1388.734253,1289.668213 1388.703125,1298.823730
	C1388.593994,1302.008057 1388.581055,1304.415527 1388.568115,1306.823120
	C1388.642822,1309.270020 1388.717651,1311.716919 1388.794922,1314.928467
	C1389.165283,1319.582520 1389.533447,1323.472046 1389.901489,1327.361450
	C1389.548584,1330.119385 1388.939941,1332.872803 1388.890503,1335.636108
	C1388.738770,1344.124023 1388.801514,1352.615845 1388.688843,1361.571533
	C1387.612061,1362.861206 1386.721802,1363.864380 1385.611572,1364.451660
	C1384.763550,1364.900146 1382.977905,1365.273926 1382.730957,1364.913086
	C1375.983643,1355.057251 1365.248169,1357.521362 1355.789185,1355.936035
	C1348.009888,1354.632202 1339.828857,1354.013428 1332.714600,1350.995728
	C1327.028076,1348.583618 1321.501831,1346.598755 1315.478638,1345.935791
	C1312.422852,1345.599365 1309.299438,1345.876953 1305.132812,1345.876953
	C1304.524170,1343.940186 1303.457764,1340.547119 1302.058472,1337.076538
	C1301.637207,1325.567139 1301.548950,1314.135376 1301.575928,1302.129150
	C1301.689087,1301.337769 1301.593018,1301.179443 1301.402832,1301.079468
z"/>
    <path fill="#DE3767" opacity="1.000000" stroke="none"
          d="
M766.042175,1105.937012
	C769.219482,1103.507202 772.642090,1103.460449 776.581604,1103.810059
	C782.774658,1104.359863 789.162903,1104.872803 794.903320,1101.003906
	C796.389709,1100.002197 798.738037,1100.164062 800.707397,1100.013672
	C810.398315,1099.274658 820.114990,1098.810059 829.781677,1097.840454
	C835.106995,1097.306396 840.326294,1095.761475 845.646912,1095.107056
	C847.432007,1094.887451 849.382568,1096.013062 851.567932,1096.736816
	C851.965881,1099.378052 852.053345,1101.806274 851.822876,1105.015137
	C851.352905,1107.775269 851.095825,1109.752930 851.064697,1111.734375
	C850.690430,1135.536011 850.307617,1159.337769 850.049622,1183.140747
	C850.014587,1186.370483 849.240479,1188.016235 845.619202,1188.186157
	C843.981689,1188.262939 842.375061,1189.940674 840.843140,1191.018066
	C839.666687,1191.845581 838.631104,1193.677002 837.529419,1193.679810
	C828.733643,1193.701660 819.839905,1194.113892 811.173218,1192.945435
	C804.905762,1192.100464 805.053833,1191.107422 803.642822,1197.617920
	C803.560608,1197.997192 802.967896,1198.265625 802.587769,1198.608154
	C796.487976,1194.980225 790.382019,1195.062988 784.015564,1197.857300
	C782.393188,1198.569336 780.177917,1198.416870 778.348633,1198.067383
	C774.867981,1197.402344 771.469177,1196.308960 766.325134,1194.936890
	C766.233337,1166.069336 766.137756,1136.003174 766.042175,1105.937012
z"/>
    <path fill="#01586B" opacity="1.000000" stroke="none"
          d="
M1029.404053,1480.685425
	C1028.626465,1479.004517 1028.314331,1477.421631 1027.842896,1475.031982
	C1031.965210,1475.031982 1035.969116,1475.031982 1039.972900,1475.031982
	C1040.064575,1474.388306 1040.156128,1473.744629 1040.247803,1473.101074
	C1038.226196,1472.727051 1036.113647,1472.599854 1034.211792,1471.900146
	C1032.715454,1471.349609 1030.577637,1470.270386 1030.348022,1469.106079
	C1030.039307,1467.539795 1030.770874,1464.934204 1031.980225,1464.073730
	C1034.632690,1462.186523 1034.607422,1460.716675 1033.445068,1457.855835
	C1031.790894,1453.784546 1031.048340,1449.334595 1030.006470,1445.024780
	C1028.775635,1439.933105 1027.290161,1434.868164 1026.550659,1429.700806
	C1025.573730,1422.875000 1025.213989,1415.960938 1024.535889,1408.501099
	C1023.596802,1407.881104 1021.665955,1406.886719 1020.120117,1405.471680
	C1019.303162,1404.723877 1018.441040,1402.853760 1018.821045,1402.155029
	C1021.853577,1396.579468 1017.190186,1397.050659 1014.296387,1396.124634
	C1012.237366,1395.465820 1010.164551,1394.850098 1008.015747,1393.877686
	C1014.420166,1393.407715 1020.906860,1393.154907 1027.393188,1393.165527
	C1045.718140,1393.195557 1064.042969,1393.333618 1082.758301,1393.574951
	C1083.906250,1394.774658 1084.567749,1396.652710 1085.436157,1396.753784
	C1093.356689,1397.675781 1101.313477,1398.284790 1109.258789,1398.995972
	C1110.518433,1399.108643 1111.773071,1399.276611 1111.745850,1399.273438
	C1110.812012,1406.847534 1109.711914,1414.026001 1109.112549,1421.245972
	C1108.714844,1426.037842 1109.029541,1430.889282 1109.033447,1435.713989
	C1109.035889,1438.857178 1110.436157,1440.841064 1113.732178,1440.947266
	C1117.885132,1441.081177 1118.915649,1443.497803 1119.064697,1447.200317
	C1119.384521,1455.145386 1120.149414,1463.073730 1120.402588,1471.019409
	C1120.458618,1472.778320 1119.148315,1474.580566 1118.378296,1476.595703
	C1119.982666,1476.856079 1121.980225,1477.180176 1123.977661,1477.504272
	C1123.992676,1477.884155 1124.007812,1478.264160 1124.022827,1478.644043
	C1122.031860,1478.765869 1120.041748,1478.905884 1118.049683,1479.006470
	C1111.155518,1479.354980 1104.260742,1479.689575 1097.172119,1480.341309
	C1074.608521,1480.696655 1052.239014,1480.740112 1029.404053,1480.685425
z"/>
    <path fill="#D92163" opacity="1.000000" stroke="none"
          d="
M766.036987,1105.475830
	C766.137756,1136.003174 766.233337,1166.069336 766.325134,1194.936890
	C771.469177,1196.308960 774.867981,1197.402344 778.348633,1198.067383
	C780.177917,1198.416870 782.393188,1198.569336 784.015564,1197.857300
	C790.382019,1195.062988 796.487976,1194.980225 802.587769,1198.608154
	C802.967896,1198.265625 803.560608,1197.997192 803.642822,1197.617920
	C805.053833,1191.107422 804.905762,1192.100464 811.173218,1192.945435
	C819.839905,1194.113892 828.733643,1193.701660 837.529419,1193.679810
	C838.631104,1193.677002 839.666687,1191.845581 840.843140,1191.018066
	C842.375061,1189.940674 843.981689,1188.262939 845.619202,1188.186157
	C849.240479,1188.016235 850.014587,1186.370483 850.049622,1183.140747
	C850.307617,1159.337769 850.690430,1135.536011 851.064697,1111.734375
	C851.095825,1109.752930 851.352905,1107.775269 851.719238,1105.460938
	C852.016357,1119.397095 852.161499,1133.668091 852.167725,1147.938965
	C852.177612,1170.685425 852.095154,1193.431885 851.949951,1216.651611
	C851.715942,1225.049438 851.625916,1232.974731 851.441528,1240.897949
	C851.169373,1252.595703 850.830017,1264.291992 850.511414,1276.285034
	C849.039429,1275.867188 848.496643,1275.779297 848.498413,1275.704102
	C848.641785,1269.473389 844.970032,1268.497803 839.761719,1268.903198
	C837.376038,1269.088867 834.834778,1268.425171 832.488647,1267.727661
	C827.758606,1266.321655 818.441223,1269.033691 814.967773,1272.585205
	C813.772278,1273.807495 811.505798,1274.710327 809.810059,1274.592041
	C801.404419,1274.005737 793.026123,1273.028198 784.637695,1272.193848
	C784.308777,1272.161133 783.920532,1272.069946 783.650452,1272.197632
	C778.162476,1274.791748 772.687744,1277.413818 766.443481,1280.396606
	C766.288940,1278.527100 766.036499,1276.873657 766.033142,1275.219604
	C765.996521,1257.066772 766.010803,1238.913818 765.972839,1220.760986
	C765.968689,1218.778198 765.724304,1216.796021 765.391968,1214.469116
	C765.118225,1191.359131 765.017944,1168.593628 764.977600,1145.828003
	C764.944641,1127.213379 764.983276,1108.598755 765.277222,1089.517822
	C765.564209,1089.051636 765.969482,1089.045898 765.969482,1089.045898
	C765.990234,1094.368774 766.010986,1099.691650 766.036987,1105.475830
z"/>
    <path fill="#FA5168" opacity="1.000000" stroke="none"
          d="
M1018.012512,655.989014
	C1017.348572,654.601501 1016.722290,653.194275 1016.010437,651.831848
	C1015.257690,650.390930 1014.423340,648.992676 1013.518311,647.387024
	C1020.563110,645.516846 1020.488586,645.359375 1019.531250,638.831604
	C1018.980469,635.075989 1019.032715,631.214966 1019.018677,627.400696
	C1018.965942,613.089294 1018.547119,598.756958 1019.200317,584.475281
	C1019.497009,577.988525 1017.149536,574.496521 1011.709900,572.121643
	C1010.759827,571.706909 1010.017822,570.815430 1009.124268,569.816040
	C1020.434326,569.517883 1031.799927,569.547729 1043.892944,569.823120
	C1045.602051,570.097595 1046.583618,570.126648 1047.565308,570.155640
	C1073.294922,574.768250 1091.420898,592.551392 1095.912476,617.588562
	C1100.225708,641.632324 1089.454102,664.757385 1067.581299,677.626465
	C1073.155273,665.474670 1067.240723,656.079407 1053.896973,656.034241
	C1041.935669,655.993774 1029.973999,656.002197 1018.012512,655.989014
z"/>
    <path fill="#B61E5F" opacity="1.000000" stroke="none"
          d="
M1017.543335,656.017578
	C1029.973999,656.002197 1041.935669,655.993774 1053.896973,656.034241
	C1067.240723,656.079407 1073.155273,665.474670 1067.242920,677.694824
	C1062.764404,679.857910 1058.542725,682.517700 1053.987305,683.348328
	C1030.234741,687.679321 1006.403015,691.578796 982.588074,695.564148
	C956.644653,699.905701 930.690308,704.181702 904.736877,708.463257
	C903.433411,708.678284 902.093933,708.674866 900.358032,708.655884
	C906.797058,706.962830 907.163635,702.528503 906.207458,696.471924
	C905.334839,690.944397 905.609558,685.132141 906.131592,679.515442
	C906.722473,673.157654 907.764648,666.769775 909.473877,660.635620
	C909.934021,658.984192 913.501038,657.243347 915.690369,657.178345
	C935.148926,656.601074 954.617554,656.306763 974.085022,656.100891
	C988.413269,655.949341 1002.744324,656.055054 1017.543335,656.017578
z"/>
    <path fill="#2493FE" opacity="1.000000" stroke="none"
          d="
M1388.692993,1272.458130
	C1387.791870,1274.253662 1386.979736,1275.596802 1385.431396,1278.157471
	C1385.147583,1273.736084 1384.932739,1270.389648 1384.717896,1267.043335
	C1384.247070,1267.045898 1383.776245,1267.048584 1383.305420,1267.051270
	C1383.109375,1271.324951 1382.913330,1275.598633 1382.717163,1279.872437
	C1382.297485,1279.899658 1381.877808,1279.927002 1381.458130,1279.954224
	C1381.301025,1277.680176 1381.107666,1275.407837 1380.995117,1273.131592
	C1380.804443,1269.274170 1379.286743,1267.375366 1374.978394,1266.857178
	C1361.039429,1265.180176 1347.157471,1263.010864 1333.285400,1260.828857
	C1331.925049,1260.614990 1330.282227,1259.263184 1329.634399,1257.997314
	C1327.605469,1254.033325 1324.573608,1252.520386 1320.271851,1252.974487
	C1316.161865,1253.408447 1312.038086,1253.712158 1307.644287,1254.097290
	C1301.179443,1246.756470 1303.250122,1236.808960 1302.978271,1227.255005
	C1302.661987,1216.132568 1302.202148,1205.014282 1301.650146,1193.568970
	C1301.535767,1174.827881 1301.575806,1156.411987 1301.750610,1137.072510
	C1301.943970,1120.443237 1302.002563,1104.737549 1302.061157,1089.031738
	C1302.358154,1090.967896 1302.903076,1092.902588 1302.913696,1094.840332
	C1303.013794,1113.133301 1302.916016,1131.427856 1303.100342,1149.719727
	C1303.202271,1159.838867 1303.381958,1169.983643 1304.235596,1180.056641
	C1304.598511,1184.340576 1306.777100,1188.470581 1308.540405,1193.942749
	C1308.828491,1188.247070 1309.064087,1183.589844 1309.299561,1178.932617
	C1313.175415,1186.797363 1313.189331,1186.554199 1322.269165,1187.075195
	C1325.594604,1187.265991 1328.780762,1189.211670 1332.127563,1189.835205
	C1340.381836,1191.373169 1348.692139,1192.610107 1356.980713,1193.962646
	C1357.307373,1194.015991 1357.768188,1193.880249 1357.956665,1194.056641
	C1363.403076,1199.157593 1370.914673,1196.973145 1377.053711,1199.522461
	C1378.907593,1200.292358 1380.509155,1201.669556 1382.394531,1202.876221
	C1382.739868,1202.002319 1383.182861,1200.881592 1383.562134,1199.922241
	C1385.164917,1201.007446 1386.528320,1201.930542 1388.232178,1202.859131
	C1388.642456,1225.911743 1388.712158,1248.958740 1388.692993,1272.458130
z"/>
    <path fill="#FD7A56" opacity="1.000000" stroke="none"
          d="
M765.129028,817.468994
	C765.508118,822.607178 765.881104,828.202087 766.042297,833.802979
	C766.178833,838.546082 766.070435,843.296265 766.070435,847.532227
	C770.577209,846.937622 774.372437,846.430725 778.169861,845.940002
	C779.155090,845.812744 780.393372,846.083557 781.098022,845.583496
	C789.352051,839.724487 798.779724,842.801453 807.677856,841.846985
	C810.980469,841.492676 814.158630,840.031128 817.411499,839.139771
	C819.130859,838.668518 820.881287,838.040588 822.630432,837.997314
	C828.444397,837.853149 834.264160,837.952820 840.081665,837.938599
	C847.406799,837.920654 850.917542,834.401794 850.932190,827.019043
	C850.966980,809.566528 850.964172,792.113953 851.019897,774.661560
	C851.026184,772.687012 851.309998,770.713440 851.686951,768.398743
	C851.994812,769.216003 852.156494,770.374023 852.156006,771.531860
	C852.124878,846.345642 852.080627,921.159363 851.941040,996.418945
	C851.586243,994.747314 851.110046,992.630615 851.103027,990.512268
	C851.023926,966.536255 851.095642,942.559509 850.928467,918.584290
	C850.891968,913.346069 850.071960,908.113220 849.692383,903.785095
	C840.988220,904.219421 832.772339,904.604980 824.560181,905.058350
	C822.759766,905.157715 820.248047,904.821350 819.297729,905.838501
	C813.314819,912.241638 805.344177,910.152222 798.222595,910.862915
	C790.474182,911.636108 782.588684,910.995056 774.763550,911.052734
	C767.458923,911.106567 766.058472,912.589905 765.991821,919.786255
	C765.965698,922.601929 765.738281,925.415771 765.416870,928.592651
	C765.152588,903.398560 765.059753,877.842346 765.001648,852.286011
	C764.975647,840.833496 765.019226,829.380859 765.129028,817.468994
z"/>
    <path fill="#D92163" opacity="1.000000" stroke="none"
          d="
M859.503662,655.988159
	C859.359253,651.618835 859.934937,647.257629 859.955994,642.893799
	C860.054138,622.590576 860.443054,602.270630 859.708374,581.993591
	C859.506775,576.429993 860.935303,573.108154 864.964417,569.778687
	C877.074036,569.418030 889.091003,569.370605 901.559509,569.457397
	C900.261108,570.730896 898.467285,571.809509 896.775696,573.029663
	C895.543152,573.918640 893.437622,574.995728 893.438843,575.986877
	C893.456726,590.444885 893.806885,604.901978 893.985229,619.360474
	C894.081726,627.182495 893.961731,635.007080 894.033936,642.829590
	C894.050598,644.633118 894.001099,646.660522 894.768372,648.190674
	C896.825439,652.292603 895.035461,654.466309 891.296082,654.957458
	C885.894409,655.666931 880.405762,655.800537 874.947754,655.969238
	C869.959045,656.123352 864.961731,655.997498 859.503662,655.988159
z"/>
    <path fill="#016870" opacity="1.000000" stroke="none"
          d="
M679.179810,1394.715088
	C678.957825,1396.865234 678.456055,1399.249512 678.047546,1401.649902
	C677.557922,1404.526245 677.163879,1407.418579 676.696899,1410.299072
	C676.438965,1411.890015 676.152527,1413.478149 675.810669,1415.052856
	C675.569092,1416.165771 674.825317,1417.306885 674.967285,1418.344849
	C676.597229,1430.255005 677.513855,1442.416626 686.208130,1452.000366
	C687.016357,1452.891235 687.223083,1454.327759 687.658386,1455.885498
	C675.882812,1444.295410 671.816040,1429.621826 673.577271,1413.432251
	C674.260376,1407.153442 677.089661,1401.108032 679.179810,1394.715088
z"/>
    <path fill="#DE3767" opacity="1.000000" stroke="none"
          d="
M765.994507,1088.572998
	C765.969482,1089.045898 765.564209,1089.051636 765.361633,1089.060303
	C765.082703,1071.296997 764.962524,1053.525024 764.940552,1035.753052
	C764.910095,1011.165466 764.953430,986.577698 765.068604,961.542603
	C765.437561,962.705688 765.932739,964.315735 765.935059,965.926636
	C765.994690,1006.651123 766.002563,1047.375732 765.994507,1088.572998
z"/>
    <path fill="#016870" opacity="1.000000" stroke="none"
          d="
M692.868652,1461.644897
	C697.859253,1463.958496 702.871277,1466.778320 708.090515,1469.140381
	C712.989258,1471.357300 717.968140,1473.693604 723.162231,1474.889038
	C730.196045,1476.507812 737.474670,1477.050781 744.632507,1478.156738
	C745.669617,1478.316895 746.619629,1479.040771 747.742310,1479.874512
	C729.377258,1480.128296 712.150024,1475.683350 696.730957,1465.156860
	C695.380615,1464.234985 694.226013,1463.026611 692.868652,1461.644897
z"/>
    <path fill="#B61E5F" opacity="1.000000" stroke="none"
          d="
M882.929810,705.494263
	C887.343567,706.123108 892.021606,707.007324 896.869263,708.200317
	C892.423950,707.589294 887.809021,706.669495 882.929810,705.494263
z"/>
    <path fill="#13BDFE" opacity="1.000000" stroke="none"
          d="
M1390.092773,1327.862061
	C1389.533447,1323.472046 1389.165283,1319.582520 1388.687500,1315.533691
	C1388.610352,1319.484863 1388.616333,1323.596191 1388.743652,1327.703857
	C1388.750977,1327.939087 1389.747681,1328.143677 1390.092773,1327.862061
z"/>
    <path fill="#13BDFE" opacity="1.000000" stroke="none"
          d="
M1388.641846,1306.582031
	C1388.581055,1304.415527 1388.593994,1302.008057 1388.581421,1299.349121
	C1388.609131,1301.512207 1388.662354,1303.926514 1388.641846,1306.582031
z"/>
    <path fill="#016870" opacity="1.000000" stroke="none"
          d="
M689.802734,1458.848145
	C691.656738,1457.849243 693.965942,1456.601562 692.735962,1460.937378
	C691.735046,1460.525146 690.830811,1459.816772 689.802734,1458.848145
z"/>
    <path fill="#016870" opacity="1.000000" stroke="none"
          d="
M848.321594,1377.572876
	C848.546814,1376.717651 848.870850,1375.852051 849.268433,1375.074951
	C849.034851,1375.963257 848.727661,1376.762817 848.321594,1377.572876
z"/>
    <path fill="#FA5168" opacity="1.000000" stroke="none"
          d="
M1000.583984,569.402893
	C1000.478638,570.209961 1000.019409,570.930359 999.560181,571.650757
	C999.092285,571.125793 998.624390,570.600769 998.111633,569.783813
	C998.787903,569.433289 999.509033,569.374756 1000.583984,569.402893
z"/>
    <path fill="#FA5168" opacity="1.000000" stroke="none"
          d="
M991.624268,569.426208
	C991.705933,570.103943 991.482605,570.697754 991.259277,571.291626
	C990.889648,570.871216 990.520020,570.450867 990.114441,569.774658
	C990.492126,569.459961 990.905640,569.401123 991.624268,569.426208
z"/>
    <path fill="#016870" opacity="1.000000" stroke="none"
          d="
M707.349609,1363.683228
	C707.453186,1363.740479 707.525696,1363.787354 707.598206,1363.834229
	C707.411255,1363.897217 707.224243,1363.960205 707.030518,1363.915771
	C707.023804,1363.808350 707.318604,1363.672852 707.349609,1363.683228
z"/>
    <path fill="#13BDFE" opacity="1.000000" stroke="none"
          d="
M1275.502808,1079.625122
	C1275.710571,1079.643799 1276.044922,1079.284180 1276.063721,1079.202026
	C1275.756958,1079.034790 1275.431641,1078.949829 1275.106201,1078.864746
	C1275.169189,1079.111938 1275.232178,1079.359253 1275.502808,1079.625122
z"/>
    <path fill="#B61E5F" opacity="1.000000" stroke="none"
          d="
M1047.317871,569.987915
	C1046.583618,570.126648 1045.602051,570.097595 1044.358154,569.922363
	C1045.087280,569.790771 1046.078857,569.805481 1047.317871,569.987915
z"/>
    <path fill="#FDA63D" opacity="1.000000" stroke="none"
          d="
M764.206543,724.380981
	C764.473267,724.824341 764.657104,725.626404 764.695618,726.650024
	C764.408142,726.160889 764.265930,725.450256 764.206543,724.380981
z"/>
    <path fill="#016870" opacity="1.000000" stroke="none"
          d="
M710.002686,1361.616699
	C710.010193,1361.631592 710.016296,1361.670410 710.017456,1361.648315
	C710.018555,1361.626221 709.995239,1361.601807 710.002686,1361.616699
z"/>
    <path fill="#542BFA" opacity="1.000000" stroke="none"
          d="
M1301.264526,1301.061157
	C1301.593018,1301.179443 1301.689087,1301.337769 1301.666748,1301.654053
	C1301.356812,1301.710693 1301.148193,1301.560791 1300.942505,1301.119629
	C1300.868530,1300.935303 1301.126221,1301.042847 1301.264526,1301.061157
z"/>
    <path fill="#016870" opacity="1.000000" stroke="none"
          d="
M713.253906,1360.135986
	C713.226318,1360.151978 713.434875,1360.211060 713.416626,1360.140869
	C713.398376,1360.070679 713.281555,1360.119995 713.253906,1360.135986
z"/>
    <path fill="#016870" opacity="1.000000" stroke="none"
          d="
M715.362793,1358.457397
	C715.367554,1358.492554 715.514587,1358.461426 715.493469,1358.418945
	C715.472351,1358.376587 715.358032,1358.422241 715.362793,1358.457397
z"/>
    <path fill="#016870" opacity="1.000000" stroke="none"
          d="
M717.370911,1357.375000
	C717.362244,1357.415039 717.547791,1357.462036 717.538086,1357.402222
	C717.528442,1357.342407 717.379578,1357.335083 717.370911,1357.375000
z"/>
    <path fill="#016870" opacity="1.000000" stroke="none"
          d="
M720.185303,1356.163086
	C720.157410,1356.181519 720.390381,1356.236084 720.361328,1356.160400
	C720.332214,1356.084839 720.213257,1356.144775 720.185303,1356.163086
z"/>
    <path fill="#016870" opacity="1.000000" stroke="none"
          d="
M721.317261,1355.360596
	C721.309814,1355.392456 721.471558,1355.378296 721.453613,1355.331543
	C721.435669,1355.284668 721.324646,1355.328735 721.317261,1355.360596
z"/>
    <path fill="#016870" opacity="1.000000" stroke="none"
          d="
M687.821899,1456.550049
	C688.068359,1456.381592 688.322632,1456.543457 688.579712,1457.040161
	C688.333984,1457.202637 688.083130,1457.037720 687.821899,1456.550049
z"/>
    <path fill="#016870" opacity="1.000000" stroke="none"
          d="
M688.798218,1457.567139
	C689.060181,1457.395874 689.303101,1457.560913 689.501099,1458.079102
	C689.240723,1458.226196 689.015076,1458.050049 688.798218,1457.567139
z"/>
    <path fill="#DE3767" opacity="1.000000" stroke="none"
          d="
M850.513916,1089.518555
	C850.487915,1089.529907 850.539917,1089.507324 850.513916,1089.518555
z"/>
    <path fill="#FDA63D" opacity="1.000000" stroke="none"
          d="
M818.515747,641.944763
	C823.456543,646.419556 828.311768,651.248657 833.247864,656.411743
	C831.699219,655.701477 829.798584,654.918396 828.492432,653.562622
	C825.002014,649.939453 821.766846,646.070435 818.515747,641.944763
z"/>
    <path fill="#FDA63D" opacity="1.000000" stroke="none"
          d="
M802.293274,632.054138
	C807.450623,634.786255 812.718872,637.848694 818.176758,641.167542
	C811.525940,641.094421 807.726318,635.395203 802.293274,632.054138
z"/>
    <path fill="#FDA63D" opacity="1.000000" stroke="none"
          d="
M769.323486,720.193481
	C768.329468,719.441833 767.570068,718.461243 766.810608,717.480713
	C767.467712,717.160034 768.124817,716.839355 768.781921,716.518677
	C769.040649,717.667297 769.299316,718.815918 769.323486,720.193481
z"/>
    <path fill="#FDA63D" opacity="1.000000" stroke="none"
          d="
M800.324707,631.086670
	C800.699280,631.000610 801.253662,631.151001 801.995605,631.527893
	C801.623657,631.610596 801.064087,631.466797 800.324707,631.086670
z"/>
    <path fill="#02957D" opacity="1.000000" stroke="none"
          d="
M858.244995,1399.309570
	C857.952271,1399.251465 857.776245,1399.085083 857.600220,1398.918823
	C857.700378,1398.826416 857.800537,1398.733887 857.900635,1398.641479
	C858.054321,1398.828125 858.208008,1399.014771 858.244995,1399.309570
z"/>
    <path fill="#02957D" opacity="1.000000" stroke="none"
          d="
M697.481079,1373.474365
	C697.518127,1373.456055 697.443970,1373.492798 697.481079,1373.474365
z"/>
    <path fill="#016870" opacity="1.000000" stroke="none"
          d="
M691.497009,1383.498413
	C691.511658,1383.495483 691.482361,1383.501343 691.497009,1383.498413
z"/>
    <path fill="#07DDFC" opacity="1.000000" stroke="none"
          d="
M1302.053467,1077.931152
	C1301.505493,1077.671509 1301.180420,1077.181885 1300.778320,1076.382812
	C1299.077393,1070.181763 1293.735962,1070.255493 1289.260620,1069.087891
	C1287.562378,1068.644897 1285.693848,1068.854858 1282.454346,1068.696411
	C1284.244019,1064.564819 1285.018677,1060.657227 1287.256958,1057.967651
	C1298.233032,1044.779053 1311.312256,1034.124146 1329.180786,1033.338745
	C1340.918457,1032.822632 1351.650757,1036.801270 1361.981934,1043.742065
	C1369.857788,1049.033325 1374.552490,1055.931030 1378.967041,1063.270874
	C1384.391968,1072.290161 1386.736450,1082.548828 1385.813965,1093.193481
	C1385.674683,1094.800903 1383.644897,1096.707275 1382.013794,1097.515381
	C1381.267700,1097.885132 1378.548340,1096.201782 1378.131470,1094.972412
	C1376.333008,1089.668213 1372.669434,1088.775635 1367.642944,1088.909302
	C1361.864258,1089.063232 1356.059692,1088.346313 1350.271362,1087.935791
	C1349.302246,1087.867188 1348.036377,1087.738281 1347.453369,1087.121460
	C1341.045776,1080.342041 1332.062012,1083.451782 1324.441284,1081.437866
	C1319.117432,1080.031006 1313.887817,1080.477905 1312.515381,1072.918213
	C1309.858032,1076.100830 1312.863159,1081.868652 1307.377075,1081.433472
	C1306.114746,1081.333374 1305.102539,1078.079102 1303.786255,1075.974121
	C1303.432373,1076.378784 1302.854370,1077.039917 1302.053467,1077.931152
z"/>
    <path fill="#3764FE" opacity="1.000000" stroke="none"
          d="
M1301.937500,1088.983765
	C1302.002563,1104.737549 1301.943970,1120.443237 1301.792725,1136.610107
	C1301.492554,1131.460815 1301.138916,1125.851196 1301.109375,1120.240112
	C1301.056274,1110.119995 1301.197144,1099.999023 1301.406006,1089.436768
	C1301.555176,1088.994995 1301.813721,1088.935791 1301.937500,1088.983765
z"/>
    <path fill="#3764FE" opacity="1.000000" stroke="none"
          d="
M1301.523315,1086.623291
	C1301.426147,1086.676636 1301.288208,1086.307739 1301.380981,1086.255371
	C1301.473755,1086.203125 1301.620483,1086.569946 1301.523315,1086.623291
z"/>
    <path fill="#D92163" opacity="1.000000" stroke="none"
          d="
M853.860718,573.975342
	C854.606995,573.650757 855.345886,573.588745 856.084778,573.526733
	C856.079529,573.849060 856.074341,574.171326 856.069092,574.493591
	C855.330505,574.408386 854.591919,574.323181 853.860718,573.975342
z"/>
</svg>
